<svg id="Layer_1" data-name="Layer 1" xmlns="http://www.w3.org/2000/svg" viewBox="0 0 177 177"><defs><style>.cls-1{fill:#fff;}</style></defs><title>icon-key</title><path class="cls-1" d="M100.5,27A70.5,70.5,0,1,1,30,97.5,70.58,70.58,0,0,1,100.5,27m0-18A88.5,88.5,0,1,0,189,97.5,88.5,88.5,0,0,0,100.5,9Z" transform="translate(-12 -9)"/><path class="cls-1" d="M156,88.59H92.29a23.16,23.16,0,1,0,.45,11.72H122v16.41h7V100.31h4.69V112h7V100.31h4.69v16.41h7V100.31H156ZM70.15,107.92a12.6,12.6,0,1,1,12.6-12.6A12.61,12.61,0,0,1,70.15,107.92Z" transform="translate(-12 -9)"/></svg>