<?xml version="1.0" encoding="UTF-8"?>
<svg id="Layer_1" xmlns="http://www.w3.org/2000/svg" version="1.1" viewBox="0 0 512 512">
  <!-- Generator: Adobe Illustrator 29.4.0, SVG Export Plug-In . SVG Version: 2.1.0 Build 152)  -->
  <defs>
    <style>
      .st0 {
        fill: #fff;
      }
    </style>
  </defs>
  <g id="Layer_22">
    <path class="st0" d="M336,199.4l-57.4,56.6,57.4,56.6c6.5,6,6.8,16.2.7,22.6-.2.3-.5.5-.7.7-3,3-7.1,4.7-11.4,4.6-4.2,0-8.2-1.7-11.2-4.6l-57.4-57.4-56.6,57.4c-3,3-7,4.6-11.2,4.6-4.3,0-8.3-1.6-11.4-4.6-6.2-6.2-6.2-16.3,0-22.6l56.6-57.4-56.6-56.6c-5.7-6.7-5-16.8,1.7-22.6,6-5.1,14.8-5.1,20.8,0l56.6,56.6,56.6-56.6c6.2-6.5,16.5-6.6,23-.4s6.6,16.5.4,23ZM414.4,414.4c-87.5,87.5-229.3,87.5-316.8,0-87.5-87.5-87.5-229.3,0-316.8,87.5-87.5,229.3-87.5,316.8,0,87.5,87.5,87.5,229.3,0,316.8h0ZM391.8,120.2c-75.1-74.9-196.7-74.6-271.5.5-74.9,75.1-74.6,196.7.5,271.5,74.9,74.7,196.1,74.7,271.1,0,75.1-74.9,75.3-196.4.5-271.5-.2-.2-.3-.3-.5-.5Z"/>
  </g>
</svg>