<?xml version="1.0" encoding="UTF-8"?>
<svg id="Layer_1" xmlns="http://www.w3.org/2000/svg" version="1.1" viewBox="0 0 512 512">
  <!-- Generator: Adobe Illustrator 29.4.0, SVG Export Plug-In . SVG Version: 2.1.0 Build 152)  -->
  <defs>
    <style>
      .st0 {
        fill: #fff;
      }

      .st1 {
        fill: #333;
      }
    </style>
  </defs>
  <circle class="st0" cx="258.2" cy="257.4" r="256"/>
  <path class="st1" d="M258.2,115.5c-78.2,0-141.8,63.6-141.8,141.8s63.6,141.8,141.8,141.8,141.8-63.6,141.8-141.8-63.6-141.8-141.8-141.8ZM258.2,370.8c-62.6,0-113.5-50.9-113.5-113.5s50.9-113.5,113.5-113.5,113.5,50.9,113.5,113.5-50.9,113.5-113.5,113.5h0ZM272.4,200.6c0,7.8-6.3,14.2-14.2,14.2s-14.2-6.4-14.2-14.2,6.3-14.2,14.2-14.2,14.2,6.4,14.2,14.2ZM272.4,243.2v70.9c0,7.8-6.4,14.2-14.2,14.2s-14.2-6.4-14.2-14.2v-70.9c0-7.8,6.4-14.2,14.2-14.2s14.2,6.4,14.2,14.2h0Z"/>
</svg>