<?xml version="1.0" encoding="UTF-8"?>
<svg id="Layer" xmlns="http://www.w3.org/2000/svg" version="1.1" viewBox="0 0 512 512">
  <!-- Generator: Adobe Illustrator 29.4.0, SVG Export Plug-In . SVG Version: 2.1.0 Build 152)  -->
  <defs>
    <style>
      .st0 {
        fill: #fff;
      }
    </style>
  </defs>
  <path id="floppy-disk" class="st0" d="M449.9,128.6l-66.6-66.6c-9-9-21.2-14-33.9-14.1h-221.4c-39.6-4.6-75.4,23.8-80,63.4-.6,5.5-.6,11.1,0,16.6v256c-4.6,39.6,23.8,75.4,63.4,80,5.5.6,11.1.6,16.6,0h256c39.6,4.6,75.4-23.8,80-63.4.6-5.5.6-11.1,0-16.6v-221.4c0-12.7-5.1-24.9-14.1-33.9ZM346.7,432h-181.3v-122.7c0-12.6,3.4-16,16-16h149.3c12.6,0,16,3.4,16,16v122.7ZM432,384c0,33.6-14.4,48-48,48h-5.3v-122.7c2.3-24.2-15.6-45.7-39.8-48-2.7-.3-5.5-.3-8.2,0h-149.3c-24.2-2.3-45.7,15.6-48,39.8-.3,2.7-.3,5.5,0,8.2v122.7h-5.3c-33.6,0-48-14.4-48-48V128c0-33.6,14.4-48,48-48h221.4c4.2,0,8.3,1.7,11.3,4.7l66.6,66.6c3,3,4.7,7.1,4.7,11.3v221.4ZM325.3,170.7c0,8.8-7.2,16-16,16h-106.7c-8.8,0-16-7.2-16-16s7.2-16,16-16h106.7c8.8,0,16,7.2,16,16Z"/>
</svg>