<?xml version="1.0" encoding="UTF-8"?>
<svg id="Layer_1" xmlns="http://www.w3.org/2000/svg" version="1.1" viewBox="0 0 512 512">
  <!-- Generator: Adobe Illustrator 29.4.0, SVG Export Plug-In . SVG Version: 2.1.0 Build 152)  -->
  <defs>
    <style>
      .st0 {
        fill: #999;
      }
    </style>
  </defs>
  <g id="_x32_-Magnifying_Glass">
    <path class="st0" d="M429.7,399.6l-69.2-69.2c21-27.4,32.5-60.7,32.5-95.9,0-42.3-16.5-82.1-46.4-112.1-29.9-29.9-69.7-46.4-112.1-46.4s-82.1,16.5-112.1,46.4c-61.8,61.8-61.8,162.4,0,224.2,29.9,29.9,69.7,46.4,112.1,46.4,35.1,0,68.4-11.5,95.9-32.5l69.2,69.2c4.2,4.2,9.6,6.3,15.1,6.3s10.9-2.1,15.1-6.3c8.3-8.3,8.3-21.8,0-30.2ZM152.6,316.4c-45.2-45.2-45.2-118.7,0-163.8,21.9-21.9,51-33.9,81.9-33.9s60,12.1,81.9,33.9c21.9,21.9,33.9,51,33.9,81.9s-12.1,60-33.9,81.9-51,33.9-81.9,33.9-60-12.1-81.9-33.9Z"/>
  </g>
</svg>