<?xml version="1.0" encoding="UTF-8"?><svg id="Layer_1" xmlns="http://www.w3.org/2000/svg" width="198" height="198" viewBox="0 0 198 198"><defs><style>.cls-1{fill:#fff;}.cls-2{fill:#2a61ff;}</style></defs><circle class="cls-2" cx="99" cy="99" r="99"/><path class="cls-1" d="M161.26,97.73c-10.41-21.92-34.09-41.69-61.79-41.69-31.17,0-53.57,24.38-61.79,41.69-.63,1.32-.63,2.85,0,4.17,10.41,21.92,34.09,41.69,61.79,41.69,31.17,0,53.57-24.38,61.79-41.69.63-1.32.63-2.85,0-4.17ZM99.47,133.86c-22.41,0-40.99-14.77-51.89-34.05,10.85-19.2,29.42-34.05,51.89-34.05s40.99,14.77,51.89,34.05c-10.85,19.2-29.42,34.05-51.89,34.05ZM99.47,75.49c-13.41,0-24.32,10.91-24.32,24.32s10.91,24.32,24.32,24.32,24.32-10.91,24.32-24.32-10.91-24.32-24.32-24.32ZM99.47,114.41c-8.05,0-14.59-6.55-14.59-14.59s6.55-14.59,14.59-14.59,14.59,6.55,14.59,14.59-6.55,14.59-14.59,14.59Z"/></svg>