<?xml version="1.0" encoding="UTF-8"?>
<svg id="Layer_1" xmlns="http://www.w3.org/2000/svg" version="1.1" viewBox="0 0 512 512">
  <!-- Generator: Adobe Illustrator 29.4.0, SVG Export Plug-In . SVG Version: 2.1.0 Build 152)  -->
  <defs>
    <style>
      .st0 {
        fill: #fff;
      }
    </style>
  </defs>
  <path class="st0" d="M256,512C114.8,512,0,397.2,0,256S114.8,0,256,0s256,114.8,256,256-114.8,256-256,256ZM256,36.6c-121,0-219.4,98.4-219.4,219.4s98.4,219.4,219.4,219.4,219.4-98.4,219.4-219.4S377,36.6,256,36.6Z"/>
  <path class="st0" d="M360.4,334.5l-78.5-78.5,78.5-78.5c7.1-7.1,7.1-18.7,0-25.9-7.1-7.1-18.7-7.1-25.9,0l-78.5,78.5-78.5-78.5c-7.1-7.1-18.7-7.1-25.9,0-7.1,7.1-7.1,18.7,0,25.9l78.5,78.5-78.5,78.5c-7.1,7.1-7.1,18.7,0,25.9,3.6,3.6,8.2,5.4,12.9,5.4s9.4-1.8,12.9-5.4l78.5-78.5,78.5,78.5c3.6,3.6,8.2,5.4,12.9,5.4s9.4-1.8,12.9-5.4c7.1-7.1,7.1-18.7,0-25.9Z"/>
</svg>