<?xml version="1.0" encoding="utf-8"?>
<!-- Generator: Adobe Illustrator 27.0.0, SVG Export Plug-In . SVG Version: 6.00 Build 0)  -->
<svg version="1.1" id="Layer_1" xmlns="http://www.w3.org/2000/svg" xmlns:xlink="http://www.w3.org/1999/xlink" x="0px" y="0px"
	 viewBox="0 0 150.2 150.2" style="enable-background:new 0 0 150.2 150.2;" xml:space="preserve">
<style type="text/css">
	.st0{fill:#FFFFFF;stroke:#00ADB4;stroke-width:2;stroke-miterlimit:10;}
	.st1{fill:#00ADB4;}
</style>
<g id="Layer_2_00000168839575242723060600000004430465328164006333_">
	<g id="Layer_1-2">
		<g id="Icon10">
			<circle class="st0" cx="75.1" cy="75.1" r="74.1"/>
			<g>
				<g>
					<path class="st1" d="M75.1,97.6c-1.1,0-2.1-0.9-2.1-2c0,0,0-0.1,0-0.1V78.6c0-1.2,0.9-2.1,2.1-2.1c1.2,0,2.1,0.9,2.1,2.1v16.9
						C77.2,96.7,76.3,97.6,75.1,97.6z"/>
					<path class="st1" d="M70.9,80.7c-4.3,0-7.7-3.4-7.7-7.7c0-1.2,0.9-2.1,2.1-2.1s2.1,0.9,2.1,2.1c0,1.9,1.6,3.5,3.5,3.5
						c1.2,0,2.1,0.9,2.1,2.1C73,79.8,72.1,80.7,70.9,80.7z"/>
					<path class="st1" d="M79.3,80.7c-1.2,0-2.1-0.9-2.1-2.1s0.9-2.1,2.1-2.1c0,0,0,0,0,0c1.9,0,3.5-1.6,3.5-3.5
						c0-1.2,0.9-2.1,2.1-2.1c1.2,0,2.1,0.9,2.1,2.1c0,4.2-3.4,7.7-7.6,7.7C79.4,80.7,79.3,80.7,79.3,80.7z"/>
					<path class="st1" d="M79.3,80.7h-8.4c-1.2,0-2.1-0.9-2.1-2.1s0.9-2.1,2.1-2.1c0,0,0,0,0,0h8.4c1.2,0,2.1,0.9,2.1,2.1
						S80.5,80.7,79.3,80.7C79.3,80.7,79.3,80.7,79.3,80.7z"/>
					<path class="st1" d="M65.3,75.1c-1.1,0-2.1-0.9-2.1-2c0,0,0-0.1,0-0.1V61.8c0-1.2,0.9-2.1,2.1-2.1s2.1,0.9,2.1,2.1V73
						C67.4,74.1,66.4,75.1,65.3,75.1z"/>
					<path class="st1" d="M85,75.1c-1.1,0-2.1-0.9-2.1-2c0,0,0-0.1,0-0.1V61.8c0-1.2,0.9-2.1,2.1-2.1c1.2,0,2.1,0.9,2.1,2.1V73
						C87.1,74.1,86.1,75.1,85,75.1z"/>
					<path class="st1" d="M85,63.8H65.3c-1.2,0-2.1-0.9-2.1-2.1c0-1.2,0.9-2.1,2.1-2.1H85c1.1,0,2.1,0.9,2.1,2c0,0,0,0.1,0,0.1
						C87.1,62.9,86.2,63.8,85,63.8z"/>
					<path class="st1" d="M69.5,63.8c-1.1,0-2.1-0.9-2.1-2c0,0,0-0.1,0-0.1V50.5c0-1.2,0.9-2.1,2.1-2.1s2.1,0.9,2.1,2.1c0,0,0,0,0,0
						v11.2c0,1.1-0.9,2.1-2,2.1C69.6,63.8,69.5,63.8,69.5,63.8z"/>
					<path class="st1" d="M80.7,63.8c-1.1,0-2.1-0.9-2.1-2c0,0,0-0.1,0-0.1V50.5c0-1.2,0.9-2.1,2.1-2.1s2.1,0.9,2.1,2.1c0,0,0,0,0,0
						v11.2c0,1.1-0.9,2.1-2,2.1C80.8,63.8,80.7,63.8,80.7,63.8z"/>
					<g>
						<path class="st1" d="M119.4,67.4v-2.8c0-2.7-2.2-4.9-4.9-4.9h-6.9l-5.1-15.4c-1.1-3.4-8.7-5.6-17.5-6.6v4.2
							c8,0.9,12.7,2.8,13.5,3.7l5.6,16.8c0.3,0.9,1.1,1.4,2,1.4h8.4c0.4,0,0.7,0.3,0.7,0.7c0,0,0,0,0,0v2.8c0,1.9-1.6,3.5-3.5,3.5
							c-1.1,0-2.1,0.9-2.1,2c0,0,0,0.1,0,0.1v0.3c0,0.6,0.2,1.1,0.6,1.5c5,5,5,9.7,5,15.1v19.7c0,0.4-0.3,0.7-0.7,0.7c0,0,0,0,0,0
							h-11.2c-0.4,0-0.7-0.3-0.7-0.7c0,0,0,0,0,0v-8.4c0-1.1-0.9-2.1-2-2.1c0,0-0.1,0-0.1,0H83.6c-1.2,0-2.1,0.9-2.1,2.1
							s0.9,2.1,2.1,2.1c0,0,0,0,0,0h14.8v6.3c0,2.7,2.2,4.9,4.9,4.9h11.2c2.7,0,4.9-2.2,4.9-4.9V89.8c0-5.1,0-10.3-4.1-15.7
							C117.8,72.8,119.4,70.2,119.4,67.4z"/>
						<path class="st1" d="M75.1,93.4c-1.1,0-2.1,0.9-2.1,2c0,0,0,0.1,0,0.1c0,1.9-1.6,3.5-3.5,3.5H49.8c-1.1,0-2.1,0.9-2.1,2
							c0,0,0,0.1,0,0.1v8.4c0,0.4-0.3,0.7-0.7,0.7c0,0,0,0,0,0H35.8c-0.4,0-0.7-0.3-0.7-0.7c0,0,0,0,0,0V89.8c0-5.4,0-10.1,5-15.1
							c0.4-0.4,0.6-0.9,0.6-1.5v-0.3c0-1.1-0.9-2.1-2-2.1c0,0-0.1,0-0.1,0c-1.9,0-3.5-1.6-3.5-3.5v-2.8c0-0.4,0.3-0.7,0.7-0.7
							c0,0,0,0,0,0h8.4c0.9,0,1.7-0.6,2-1.4l5.6-16.8c0.8-0.9,5.6-2.8,13.7-3.8v-4.2c-8.9,0.9-16.7,3.2-17.7,6.6l-5.1,15.4h-6.9
							c-2.7,0-4.9,2.2-4.9,4.9v2.8c0,2.9,1.6,5.5,4.1,6.8c-4.1,5.4-4.1,10.6-4.1,15.7v19.7c0,2.7,2.2,4.9,4.9,4.9H47
							c2.7,0,4.9-2.2,4.9-4.9v-6.3h17.6c4.3,0,7.7-3.4,7.7-7.7c0-1.1-0.9-2.1-2-2.1C75.2,93.4,75.1,93.4,75.1,93.4z"/>
					</g>
				</g>
				<path class="st1" d="M82.8,33.7c-2.9,4.9-5.7,9.9-8.6,14.8v0.1c-0.2,0.4-0.4,0.7-0.9,0.5s-0.4-0.6-0.3-1
					c0.2-1.2,0.5-2.5,0.7-3.7l1.2-6.6c0-0.2,0.1-0.4,0.1-0.6h-5.5c-0.9,0-1.2-0.4-0.7-1.2c2.9-4.9,5.7-9.9,8.6-14.8v-0.1
					c0.2-0.4,0.4-0.7,0.9-0.5s0.4,0.6,0.3,1c-0.2,1.2-0.5,2.5-0.7,3.7l-1.2,6.6c0,0.2-0.1,0.4-0.1,0.6h5.5
					C83.1,32.5,83.3,32.9,82.8,33.7z"/>
			</g>
		</g>
	</g>
</g>
</svg>
