<?xml version="1.0" encoding="utf-8"?>
<!-- Generator: Adobe Illustrator 27.0.0, SVG Export Plug-In . SVG Version: 6.00 Build 0)  -->
<svg version="1.1" id="Layer_1" xmlns="http://www.w3.org/2000/svg" xmlns:xlink="http://www.w3.org/1999/xlink" x="0px" y="0px"
	 viewBox="0 0 150.2 150.2" style="enable-background:new 0 0 150.2 150.2;" xml:space="preserve">
<style type="text/css">
	.st0{fill:#FFFFFF;stroke:#00ADB4;stroke-width:2;stroke-miterlimit:10;}
	.st1{fill:#00ADB4;}
</style>
<g id="Layer_2_00000096036686218510212430000008674586550728159622_">
	<g id="Layer_1-2">
		<g id="Icon12">
			<circle class="st0" cx="75.1" cy="75.1" r="74.1"/>
			<g>
				<path class="st1" d="M56.7,87.8H46c-6,0-10.8-4.8-10.8-10.8v-4.7c0-6,4.8-10.8,10.8-10.8h19.2c6,0,10.8,4.8,10.8,10.8v5.2
					c0,4,3.3,7.3,7.3,7.3c4,0,7.3-3.3,7.3-7.3c0,0,0,0,0,0v-5.2c0-14.1-11.4-25.5-25.5-25.5H46c-14.1,0-25.5,11.4-25.5,25.5
					c0,0,0,0,0,0V77c0,14.1,11.4,25.5,25.5,25.5h10.7c4.1,0,7.3-3.3,7.3-7.4C64,91.1,60.8,87.8,56.7,87.8z M56.7,99.4H46
					c-12.4,0-22.5-10.1-22.5-22.5v-4.7c0-12.4,10.1-22.5,22.5-22.5h19.2c12.4,0,22.5,10.1,22.5,22.5v5.2c0,2.4-1.9,4.3-4.3,4.3
					s-4.3-1.9-4.3-4.3c0,0,0,0,0,0v-5.2c0-7.6-6.2-13.8-13.8-13.8H46c-7.6,0-13.8,6.2-13.8,13.8v4.7c0,7.6,6.2,13.8,13.8,13.8h10.7
					c2.4,0,4.3,2,4.3,4.4C61,97.5,59.1,99.4,56.7,99.4z"/>
				<path class="st1" d="M102.4,46.8h-9.3c-4,0-7.3,3.3-7.3,7.3s3.3,7.3,7.3,7.3h9.3c6,0,10.8,4.8,10.8,10.8v4.7
					c0,6-4.8,10.8-10.8,10.8h-18c-6,0-10.8-4.8-10.8-10.8v-4.1c0-4-3.3-7.3-7.3-7.3c-4,0-7.3,3.3-7.3,7.3v4.1
					c0,14.1,11.4,25.5,25.5,25.5h18c14.1,0,25.5-11.4,25.5-25.5c0,0,0,0,0,0v-4.7C127.9,58.1,116.5,46.8,102.4,46.8z M124.9,76.9
					c0,12.4-10.1,22.5-22.5,22.5h-18c-12.4,0-22.5-10.1-22.5-22.5v-4.1c0-2.4,1.9-4.3,4.3-4.3c2.4,0,4.3,1.9,4.3,4.3v4.1
					c0,7.6,6.2,13.8,13.8,13.8h18c7.6,0,13.8-6.2,13.8-13.8v-4.7c0-7.6-6.2-13.8-13.8-13.8H93c-2.4,0-4.3-1.9-4.3-4.3
					c0-2.4,1.9-4.3,4.3-4.3h9.3c12.4,0,22.5,10.1,22.5,22.5C124.8,72.3,124.9,76.9,124.9,76.9z"/>
			</g>
		</g>
	</g>
</g>
</svg>
