<?xml version="1.0" encoding="utf-8"?>
<!-- Generator: Adobe Illustrator 27.0.0, SVG Export Plug-In . SVG Version: 6.00 Build 0)  -->
<svg version="1.1" id="Layer_1" xmlns="http://www.w3.org/2000/svg" xmlns:xlink="http://www.w3.org/1999/xlink" x="0px" y="0px"
	 viewBox="0 0 150.2 150.2" style="enable-background:new 0 0 150.2 150.2;" xml:space="preserve">
<style type="text/css">
	.st0{fill:#FFFFFF;stroke:#00ADB4;stroke-width:2;stroke-miterlimit:10;}
	.st1{fill:#00ADB4;}
</style>
<g id="Layer_2_00000029012784568352850030000010386910312546628500_">
	<g id="Layer_1-2">
		<g id="Icon16">
			<circle class="st0" cx="75.1" cy="75.1" r="74.1"/>
			<g>
				<g>
					<path class="st1" d="M115.1,59.5c0-0.7-0.6-1.3-1.3-1.3h-38c-0.7,0-1.3,0.6-1.3,1.3c0,0.7,0.6,1.3,1.3,1.3h38
						C114.5,60.8,115.1,60.2,115.1,59.5"/>
					<path class="st1" d="M96.1,96.2v-30l25.1,6.8c-0.2,0.7-0.4,1.7-0.7,2.8l-13.9-3.7c-0.6-0.2-1.3,0.1-1.5,0.7c0,0.1,0,0.1,0,0.2
						c-0.2,0.6,0.2,1.3,0.8,1.5c0,0,0.1,0,0.1,0l13.8,3.6c-1.7,5.6-4.7,13.4-9,17.9C110.8,96,96.1,96.2,96.1,96.2z M69.6,78.4
						l14.2-3.7c0.7-0.2,1-0.9,0.8-1.6c-0.2-0.6-0.8-0.9-1.4-0.8L69.1,76c-0.1-0.9-0.3-1.9-0.6-2.8l25.1-6.9v30H77.7
						C73.5,91.7,71,83.9,69.6,78.4 M72.1,69.4V55.7h45.6v13.8l-22.4-6.1c-0.2-0.1-0.5-0.1-0.7,0L72.1,69.4z M64.5,50.6h60.8v2.5
						H64.5V50.6z M75.9,46.6l15.2-2.8v4.3H75.9V46.6z M93.6,32.9h2.5v15.2h-2.5V32.9z M113.9,46.6v1.5H98.7v-4.4L113.9,46.6z
						 M130.3,96.2h-16.2c6.5-8.4,9.7-23.1,9.9-23.8c0.1-0.7-0.3-1.3-0.9-1.5l-2.9-0.8V55.7h5.1c1.4,0,2.5-1.1,2.5-2.5c0,0,0,0,0,0
						v-2.5c0-1.4-1.1-2.5-2.5-2.5c0,0,0,0,0,0h-8.9v-1.5c0-1.2-0.9-2.3-2.1-2.5l-15.7-2.9V38l4.7,1.3h0.4c0.7,0,1.3-0.6,1.3-1.3
						c0-0.6-0.4-1-0.9-1.2l-5.4-1.5V33c0-1.4-1.1-2.5-2.5-2.5c0,0,0,0,0,0h-2.5c-1.4,0-2.5,1.1-2.5,2.5c0,0,0,0,0,0v2.3l-5.4,1.5
						c-0.7,0.2-1.1,0.9-0.9,1.6c0,0,0,0,0,0c0.1,0.5,0.6,0.9,1.2,0.9h0.4l4.7-1.3v3.3l-15.6,2.9c-1.2,0.2-2.1,1.3-2.1,2.5v1.5h-8.9
						c-1.4,0-2.5,1.1-2.5,2.5c0,0,0,0,0,0v2.5c0,1.4,1.1,2.5,2.5,2.5c0,0,0,0,0,0h5.1v14.5L66.8,71c-0.6,0.2-1,0.8-0.9,1.4
						c0.1,0.7,2.3,15.4,8.6,23.9h-15c-0.7,0-1.3,0.6-1.3,1.3c0,0.7,0.6,1.3,1.3,1.3c0,0,0,0,0,0h70.9c0.7,0,1.3-0.6,1.3-1.3
						C131.7,96.8,131.1,96.2,130.3,96.2"/>
					<path class="st1" d="M115.8,101.2H74c-0.7,0-1.3,0.6-1.3,1.3c0,0.7,0.6,1.3,1.3,1.3h41.8c0.7,0,1.3-0.6,1.3-1.3
						C117.1,101.8,116.5,101.2,115.8,101.2"/>
					<path class="st1" d="M81.8,90l-1.4-2.7h2.2l1.3,3.2L81.8,90z M87.2,91.9l-2.5-6.3c-0.2-0.5-0.7-0.8-1.2-0.8h-5.1
						c-0.7,0-1.3,0.6-1.3,1.3c0,0.2,0.1,0.4,0.1,0.6l2.5,5.1c0.2,0.3,0.5,0.6,0.8,0.7l5.1,1.3h0.3c0.7,0,1.3-0.6,1.3-1.3
						C87.3,92.3,87.3,92.1,87.2,91.9"/>
					<path class="st1" d="M107.9,90l-2.1,0.5l1.3-3.2h2.1L107.9,90z M112.4,85.4c-0.2-0.4-0.6-0.6-1.1-0.6h-5.1
						c-0.5,0-1,0.3-1.2,0.8l-2.5,6.3c-0.3,0.6,0,1.3,0.6,1.6c0,0,0.1,0,0.1,0c0.3,0.1,0.5,0.1,0.8,0l5.1-1.3
						c0.4-0.1,0.7-0.3,0.8-0.7l2.5-5.1C112.7,86.2,112.6,85.8,112.4,85.4"/>
				</g>
				<path class="st1" d="M51.6,99.8c-0.6,0-1.1-0.5-1.1-1.1V86.5H10.2c-0.6,0-1.1-0.5-1.1-1.1c0-0.6,0.5-1.1,1.1-1.1h42.4v14.4
					c0.1,0.5-0.3,1-0.9,1.1C51.7,99.8,51.6,99.8,51.6,99.8z"/>
				<path class="st1" d="M46.7,85.8H24.3V63.4h22.4V85.8z M26.5,83.7h18.1V65.6H26.5V83.7z"/>
				<path class="st1" d="M39.5,74c-1.6,2.7-3.2,5.5-4.7,8.2l0,0c-0.1,0.2-0.2,0.4-0.5,0.3s-0.2-0.3-0.2-0.6c0.1-0.7,0.3-1.4,0.4-2.1
					c0.2-1.2,0.5-2.4,0.7-3.6v-0.4h-3.1c-0.5,0-0.6-0.2-0.4-0.7c1.6-2.7,3.2-5.5,4.7-8.2l0,0c0.1-0.2,0.2-0.4,0.5-0.3
					s0.2,0.3,0.2,0.6c-0.1,0.7-0.3,1.4-0.4,2.1c-0.2,1.2-0.5,2.4-0.7,3.6v0.4h3.1C39.6,73.4,39.7,73.6,39.5,74z"/>
				<path class="st1" d="M68.5,83.3c-11.6,0-22.8-10.4-23.3-10.8l1-1.1c0.1,0.1,11.3,10.4,22.3,10.4V83.3z"/>
			</g>
		</g>
	</g>
</g>
</svg>
