<svg width="60" height="60" viewBox="0 0 60 60" fill="none" xmlns="http://www.w3.org/2000/svg">
<path d="M47.3333 41.3326C48.0405 41.3326 48.7189 41.0515 49.219 40.5514C49.7191 40.0513 50 39.3731 50 38.6659V30.6659C49.9998 29.8129 49.661 28.9951 49.0578 28.3921L44.6667 24.001H15.3333L10.9422 28.3921C10.3391 28.9951 10.0001 29.8129 10 30.6659V38.6659C10 39.3731 10.281 40.0513 10.781 40.5514C11.2811 41.0515 11.9594 41.3326 12.6667 41.3326H47.3333Z" stroke="#2FDBD5" stroke-linecap="round" stroke-linejoin="round"/>
<path d="M15.3333 24.0009L18.3964 15.8231C18.6728 15.0912 19.1658 14.4608 19.8096 14.0162C20.4534 13.5715 21.2175 13.3336 21.9999 13.3342H37.9999C38.7823 13.3339 39.5462 13.5719 40.19 14.0165C40.8337 14.4611 41.3269 15.0913 41.6035 15.8231L44.6666 24.0009H15.3333Z" stroke="#2FDBD5" stroke-linecap="round" stroke-linejoin="round"/>
<path d="M15.3333 24.0009L12.6667 21.3342H10" stroke="#2FDBD5" stroke-linecap="round" stroke-linejoin="round"/>
<path d="M44.6667 24.0009L47.3334 21.3342H50.0001" stroke="#2FDBD5" stroke-linecap="round" stroke-linejoin="round"/>
<path d="M12.6667 41.3325V43.9992C12.6667 44.7064 12.9477 45.3848 13.4478 45.8849C13.9479 46.385 14.6262 46.6659 15.3334 46.6659C16.0407 46.6659 16.7189 46.385 17.219 45.8849C17.7191 45.3848 18.0001 44.7064 18.0001 43.9992V41.3325H12.6667Z" stroke="#2FDBD5" stroke-linecap="round" stroke-linejoin="round"/>
<path d="M47.3333 41.3325V43.9992C47.3333 44.7064 47.0524 45.3848 46.5524 45.8849C46.0523 46.385 45.3739 46.6659 44.6667 46.6659C43.9595 46.6659 43.2811 46.385 42.781 45.8849C42.2809 45.3848 42 44.7064 42 43.9992V41.3325H47.3333Z" stroke="#2FDBD5" stroke-linecap="round" stroke-linejoin="round"/>
<path d="M23.5111 35.9992C23.05 35.9995 22.5966 35.8804 22.1953 35.6532C21.7939 35.426 21.4584 35.0987 21.2213 34.7032L18.7769 30.6267C18.5398 30.2317 18.2044 29.905 17.8035 29.6781C17.4025 29.4513 16.9496 29.3322 16.4889 29.3325H10.2898" stroke="#2FDBD5" stroke-linecap="round" stroke-linejoin="round"/>
<path d="M49.71 29.3325H43.5109C43.0504 29.3325 42.598 29.4518 42.1973 29.6785C41.7965 29.9053 41.4616 30.2321 41.2246 30.6267L38.7784 34.705C38.5414 35.0996 38.2063 35.4264 37.8056 35.6532C37.4051 35.8799 36.9525 35.9992 36.4922 35.9992" stroke="#2FDBD5" stroke-linecap="round" stroke-linejoin="round"/>
<path d="M10 34.6658H15.3333" stroke="#2FDBD5" stroke-linecap="round" stroke-linejoin="round"/>
<path d="M44.6667 34.6658H50.0001" stroke="#2FDBD5" stroke-linecap="round" stroke-linejoin="round"/>
<path d="M26.6667 32.6659C26.6667 33.1035 26.753 33.537 26.9204 33.9414C27.0881 34.3459 27.3336 34.7133 27.6431 35.0228C27.9526 35.3323 28.3201 35.5779 28.7245 35.7455C29.129 35.913 29.5624 35.9992 30.0001 35.9992C30.4378 35.9992 30.8712 35.913 31.2756 35.7455C31.6801 35.5779 32.0475 35.3323 32.3571 35.0228C32.6666 34.7133 32.9121 34.3459 33.0797 33.9414C33.2472 33.537 33.3334 33.1035 33.3334 32.6659C33.3334 32.2282 33.2472 31.7947 33.0797 31.3903C32.9121 30.9859 32.6666 30.6184 32.3571 30.3089C32.0475 29.9994 31.6801 29.7539 31.2756 29.5862C30.8712 29.4187 30.4378 29.3325 30.0001 29.3325C29.5624 29.3325 29.129 29.4187 28.7245 29.5862C28.3201 29.7539 27.9526 29.9994 27.6431 30.3089C27.3336 30.6184 27.0881 30.9859 26.9204 31.3903C26.753 31.7947 26.6667 32.2282 26.6667 32.6659Z" stroke="#2FDBD5" stroke-linecap="round" stroke-linejoin="round"/>
</svg>
