<svg width="61" height="60" viewBox="0 0 61 60" fill="none" xmlns="http://www.w3.org/2000/svg">
<path d="M50.2485 17.3923C50.2468 17.2101 50.1107 17.0416 49.9354 16.994L33.5956 12.5687C33.4969 12.5415 33.393 12.5517 33.3011 12.596L10.4934 23.4892C10.4049 23.5334 10.3317 23.6049 10.2908 23.6968C10.2653 23.753 10.2517 23.8125 10.25 23.8738V42.5966C10.25 42.7889 10.3794 42.9574 10.5649 43.0068L26.9047 47.432C27.0034 47.4593 27.1072 47.4457 27.1991 47.4048L50.0068 36.5116C50.1549 36.4401 50.2485 36.2921 50.2485 36.127C50.2519 36.1167 50.2485 17.4007 50.2468 17.3907L50.2485 17.3923ZM11.1028 24.4301L18.4217 26.413V42.7393C18.4217 42.9742 18.6123 43.1648 18.8472 43.1648C19.0821 43.1648 19.2727 42.9742 19.2727 42.7393V26.6431L26.5916 28.626V46.4669L11.1028 42.2713L11.1028 24.4301ZM27.4426 46.3477V28.299C27.4392 28.2207 27.4204 28.1407 27.3779 28.0743C27.3234 27.9824 27.2315 27.9177 27.1294 27.8871L11.8976 23.7612L33.5276 13.4315L48.6077 17.5164L28.7259 27.0122C28.5131 27.1143 28.4246 27.3679 28.525 27.579C28.6272 27.7918 28.8808 27.8803 29.0918 27.7798L49.3989 18.0797V35.8595L27.4422 46.3458L27.4426 46.3477Z" fill="#2FDBD5"/>
<path d="M32.8599 29.0297C32.7374 28.9514 32.5808 28.9429 32.4497 29.0059L30.2371 30.0629C29.7367 30.3165 30.0907 31.0603 30.603 30.8305L32.2063 30.0646V40.5678C32.2063 40.8027 32.397 40.9933 32.6319 40.9933C32.8667 40.9933 33.0574 40.8027 33.0574 40.5678V29.3905C33.0574 29.2441 32.9825 29.1079 32.8582 29.0313L32.8599 29.0297Z" fill="#2FDBD5"/>
<path d="M37.4556 26.8166C37.3331 26.7383 37.1765 26.7298 37.0454 26.7927L34.8328 27.8497C34.3324 28.1033 34.6864 28.8471 35.1987 28.6173L36.802 27.8514V38.3546C36.802 38.5895 36.9927 38.7801 37.2276 38.7801C37.4624 38.7801 37.6531 38.5895 37.6531 38.3546V27.1773C37.6531 27.031 37.5782 26.8948 37.4539 26.8182L37.4556 26.8166Z" fill="#2FDBD5"/>
<path d="M42.0508 24.6039C41.9283 24.5256 41.7717 24.5171 41.6406 24.5801L39.428 25.6371C38.9276 25.8907 39.2816 26.6345 39.7939 26.4047L41.3973 25.6388V36.142C41.3973 36.3769 41.5879 36.5675 41.8228 36.5675C42.0577 36.5675 42.2483 36.3769 42.2483 36.142V24.9647C42.2483 24.8183 42.1734 24.6822 42.0491 24.6056L42.0508 24.6039Z" fill="#2FDBD5"/>
<path d="M46.647 22.3913C46.5245 22.313 46.3679 22.3045 46.2368 22.3674L44.0242 23.4244C43.5238 23.678 43.8778 24.4219 44.3901 24.192L45.9935 23.4261V33.9293C45.9935 34.1642 46.1841 34.3549 46.419 34.3549C46.6539 34.3549 46.8445 34.1642 46.8445 33.9293V22.7521C46.8445 22.6057 46.7696 22.4695 46.6453 22.3929L46.647 22.3913Z" fill="#2FDBD5"/>
<path d="M28.9079 24.9922C29.393 24.9888 29.4985 24.2926 29.0185 24.1565L20.2395 21.7787C20.1407 21.7515 20.0369 21.7617 19.945 21.8059L18.4932 22.4986C18.2804 22.6008 18.1919 22.8544 18.2923 23.0654C18.3944 23.2782 18.648 23.3667 18.8591 23.2663L20.168 22.6399L28.7941 24.9769C28.8315 24.9871 28.869 24.9922 28.9064 24.9922L28.9079 24.9922Z" fill="#2FDBD5"/>
<path d="M28.2032 18.8239L29.5121 18.1975L38.1382 20.5345C38.676 20.6689 38.9041 19.8758 38.3611 19.7124L29.5821 17.3346C29.4834 17.3074 29.3796 17.3176 29.2877 17.3618L27.8358 18.0546C27.3371 18.3082 27.6877 19.052 28.2018 18.8222L28.2032 18.8239Z" fill="#2FDBD5"/>
<path d="M32.7989 16.6161L34.1078 15.9898L42.7339 18.3267C43.2717 18.4612 43.4998 17.668 42.9569 17.5046L34.1778 15.1268C34.0791 15.0996 33.9753 15.1098 33.8834 15.1541L32.4315 15.8468C31.9328 16.1004 32.2834 16.8442 32.7975 16.6144L32.7989 16.6161Z" fill="#2FDBD5"/>
<path d="M23.4561 21.0419L24.765 20.4155L33.3911 22.7525C33.929 22.8869 34.157 22.0938 33.6141 21.9304L24.835 19.5526C24.7363 19.5254 24.6325 19.5356 24.5406 19.5799L23.0887 20.2726C22.5901 20.5262 22.9407 21.27 23.4547 21.0402L23.4561 21.0419Z" fill="#2FDBD5"/>
<path d="M21.2302 34.0012C20.9953 34.0012 20.8047 34.1919 20.8047 34.4267V37.4904C20.8047 37.7253 20.9953 37.9159 21.2302 37.9159C21.4651 37.9159 21.6557 37.7253 21.6557 37.4904V34.4267C21.6557 34.1919 21.4651 34.0012 21.2302 34.0012Z" fill="#2FDBD5"/>
<path d="M16.4636 32.98C16.2287 32.98 16.0381 33.1706 16.0381 33.4055V36.4692C16.0381 36.7041 16.2287 36.8947 16.4636 36.8947C16.6985 36.8947 16.8891 36.7041 16.8891 36.4692V33.4055C16.8891 33.1706 16.6985 32.98 16.4636 32.98Z" fill="#2FDBD5"/>
</svg>
