<svg width="61" height="60" viewBox="0 0 61 60" fill="none" xmlns="http://www.w3.org/2000/svg">
<path d="M49.9686 35.4133H17.4091V30.9634H22.458C22.5803 30.9634 22.7009 30.9347 22.8101 30.8796C22.9193 30.8245 23.014 30.7445 23.0867 30.6461C23.1593 30.5476 23.2078 30.4335 23.2283 30.3129C23.2488 30.1924 23.2407 30.0686 23.2046 29.9518L17.1917 10.4577C17.144 10.3028 17.0492 10.1665 16.9206 10.0678C16.792 9.96917 16.6358 9.91296 16.4738 9.90702L11.5549 9.72448C11.3487 9.71825 11.1484 9.79386 10.9976 9.93481C10.8469 10.0758 10.7581 10.2706 10.7505 10.4768C10.7429 10.683 10.8172 10.8838 10.9572 11.0355C11.0972 11.1871 11.2914 11.2772 11.4976 11.2861L15.8621 11.4479L21.3993 29.4005H16.6276C16.525 29.4005 16.4234 29.4207 16.3286 29.4599C16.2338 29.4992 16.1476 29.5568 16.075 29.6293C16.0025 29.7019 15.9449 29.788 15.9056 29.8829C15.8664 29.9777 15.8462 30.0793 15.8462 30.1819V36.1948C15.8462 36.2974 15.8664 36.399 15.9056 36.4938C15.9449 36.5886 16.0025 36.6748 16.075 36.7474C16.1476 36.8199 16.2338 36.8775 16.3286 36.9168C16.4234 36.956 16.525 36.9762 16.6276 36.9762H49.9686C50.1758 36.9762 50.3746 36.8939 50.5211 36.7474C50.6677 36.6008 50.75 36.402 50.75 36.1948C50.75 35.9875 50.6677 35.7888 50.5211 35.6422C50.3746 35.4957 50.1758 35.4133 49.9686 35.4133Z" fill="#2FDBD5"/>
<path d="M26.7778 25.5726V29.6899C26.7783 30.1724 26.9702 30.6351 27.3114 30.9764C27.6525 31.3177 28.1152 31.5097 28.5977 31.5104H48.3836C48.8662 31.5097 49.3289 31.3177 49.67 30.9764C50.0112 30.6351 50.2031 30.1724 50.2035 29.6898V25.5726C50.2031 25.0901 50.0112 24.6275 49.67 24.2863C49.3288 23.9451 48.8662 23.7532 48.3836 23.7527H28.5977C28.1152 23.7532 27.6526 23.9451 27.3114 24.2863C26.9702 24.6275 26.7783 25.0901 26.7778 25.5726ZM48.6407 25.5726V29.6899C48.6398 29.7578 48.6125 29.8228 48.5645 29.8709C48.5165 29.919 48.4516 29.9465 48.3836 29.9475H28.5977C28.5298 29.9465 28.4649 29.919 28.4169 29.8709C28.3689 29.8228 28.3415 29.7578 28.3407 29.6899V25.5726C28.3417 25.5047 28.369 25.4399 28.417 25.3919C28.465 25.3439 28.5299 25.3165 28.5977 25.3156H48.3836C48.4515 25.3165 48.5163 25.3439 48.5643 25.3919C48.6123 25.4399 48.6397 25.5047 48.6407 25.5726Z" fill="#2FDBD5"/>
<path d="M45.3319 13.1572H25.546C25.0635 13.1577 24.6009 13.3496 24.2597 13.6908C23.9185 14.032 23.7266 14.4946 23.7261 14.9771V19.0944C23.7266 19.5769 23.9185 20.0395 24.2597 20.3807C24.6009 20.7219 25.0635 20.9138 25.546 20.9143H45.3319C45.8145 20.9138 46.2772 20.722 46.6185 20.3808C46.9597 20.0396 47.1518 19.577 47.1524 19.0944V14.9771C47.1518 14.4946 46.9597 14.0319 46.6185 13.6907C46.2772 13.3496 45.8145 13.1577 45.3319 13.1572ZM45.5895 19.0944C45.5885 19.1624 45.5611 19.2273 45.5129 19.2753C45.4648 19.3233 45.3998 19.3506 45.3319 19.3514H25.546C25.4781 19.3505 25.4133 19.3231 25.3653 19.2751C25.3173 19.2271 25.2899 19.1623 25.289 19.0944V14.9771C25.2899 14.9093 25.3173 14.8444 25.3653 14.7964C25.4133 14.7484 25.4781 14.7211 25.546 14.7201H45.3319C45.3998 14.7209 45.4648 14.7483 45.5129 14.7963C45.5611 14.8443 45.5885 14.9092 45.5895 14.9771V19.0944Z" fill="#2FDBD5"/>
<path d="M42.4075 39.7856C41.3701 39.7857 40.356 40.0934 39.4935 40.6698C38.6309 41.2462 37.9587 42.0654 37.5617 43.0238C37.1648 43.9823 37.061 45.0369 37.2634 46.0544C37.4659 47.0718 37.9655 48.0064 38.6991 48.7399C39.4327 49.4734 40.3673 49.9729 41.3848 50.1752C42.4022 50.3776 43.4569 50.2736 44.4153 49.8766C45.3737 49.4795 46.1928 48.8072 46.7691 47.9446C47.3454 47.082 47.653 46.0679 47.6529 45.0305C47.6513 43.6399 47.0982 42.3067 46.1148 41.3234C45.1314 40.3401 43.7981 39.7871 42.4075 39.7856ZM42.4075 48.7131C41.6792 48.713 40.9673 48.497 40.3618 48.0924C39.7563 47.6877 39.2844 47.1126 39.0057 46.4398C38.7271 45.767 38.6542 45.0266 38.7963 44.3123C38.9384 43.5981 39.2891 42.942 39.804 42.427C40.319 41.9121 40.9751 41.5614 41.6893 41.4193C42.4036 41.2772 43.1439 41.3501 43.8168 41.6288C44.4896 41.9074 45.0647 42.3794 45.4693 42.9849C45.874 43.5904 46.09 44.3023 46.09 45.0305C46.089 46.0069 45.7007 46.943 45.0103 47.6334C44.3199 48.3238 43.3838 48.7121 42.4075 48.7131Z" fill="#2FDBD5"/>
<path d="M22.0017 39.7856C20.9643 39.7857 19.9502 40.0934 19.0877 40.6698C18.2252 41.2462 17.5529 42.0654 17.156 43.0238C16.759 43.9823 16.6552 45.0369 16.8577 46.0544C17.0601 47.0718 17.5597 48.0064 18.2933 48.7399C19.0269 49.4734 19.9615 49.9729 20.979 50.1752C21.9965 50.3776 23.0511 50.2736 24.0095 49.8766C24.9679 49.4795 25.7871 48.8072 26.3634 47.9446C26.9397 47.082 27.2472 46.0679 27.2472 45.0305C27.2456 43.6399 26.6924 42.3067 25.709 41.3234C24.7256 40.3401 23.3923 39.7871 22.0017 39.7856ZM22.0017 48.7131C21.2734 48.713 20.5615 48.497 19.956 48.0924C19.3505 47.6877 18.8786 47.1126 18.6 46.4398C18.3213 45.767 18.2484 45.0266 18.3905 44.3123C18.5326 43.5981 18.8833 42.942 19.3983 42.427C19.9132 41.9121 20.5693 41.5614 21.2836 41.4193C21.9978 41.2772 22.7382 41.3501 23.411 41.6288C24.0839 41.9074 24.6589 42.3794 25.0636 42.9849C25.4682 43.5904 25.6842 44.3023 25.6843 45.0305C25.6833 46.0069 25.295 46.943 24.6046 47.6334C23.9142 48.3238 22.9781 48.7121 22.0017 48.7131Z" fill="#2FDBD5"/>
</svg>
