<?xml version="1.0" encoding="UTF-8"?>
<svg id="Layer_1" xmlns="http://www.w3.org/2000/svg" version="1.1" viewBox="0 0 105 35">
  <!-- Generator: Adobe Illustrator 29.1.0, SVG Export Plug-In . SVG Version: 2.1.0 Build 142)  -->
  <defs>
    <style>
      .st0 {
        fill: #113275;
        fill-rule: evenodd;
      }
    </style>
  </defs>
  <g id="Navigation-_x2B_-Interactions">
    <g id="Logo-hover">
      <g id="Logo">
        <path id="Combined-Shape" class="st0" d="M100.5,10.8s.3,8.2-8.8,10.2c-1,.2-5,.3-5,.3v13.7h-9.3l11-23.5h-1.9s-11,23.5-11,23.5h-4.7V.2h19c1,0,2,.2,3,.5,7.9,2.6,7.6,10.1,7.6,10.1ZM62.2,17.3c7.1,2,6.8,8.4,6.8,8.7,0,3.8-3.4,8.9-8.5,8.9h-14.1l11-23.5h-1.9s-11,23.5-11,23.5h-4.7V.2h14.5c2.6,0,5.2,0,6.9.5,4.6,1.4,6.7,5.1,6.7,7.9,0,7-5.9,8.7-5.8,8.7ZM16.8,35l11-23.5h-1.9s-11,23.5-11,23.5H0L16.3.2h20.8v34.8h-20.3Z"/>
      </g>
    </g>
  </g>
</svg>