<?xml version="1.0" encoding="UTF-8"?>
<svg id="Layer_1" xmlns="http://www.w3.org/2000/svg" version="1.1" viewBox="0 0 273 35">
  <!-- Generator: Adobe Illustrator 29.1.0, SVG Export Plug-In . SVG Version: 2.1.0 Build 142)  -->
  <defs>
    <style>
      .st0 {
        fill-rule: evenodd;
      }

      .st0, .st1 {
        fill: #fff;
      }
    </style>
  </defs>
  <g id="Navigation-_x2B_-Interactions">
    <g id="Logo-hover">
      <g id="Logo">
        <path id="Combined-Shape" class="st0" d="M100.5,10.8s.3,8.2-8.8,10.2c-1,.2-5,.3-5,.3v13.7h-9.3l11-23.5h-1.9s-11,23.5-11,23.5h-4.7V.2h19c1,0,2,.2,3,.5,7.9,2.6,7.6,10.1,7.6,10.1ZM62.2,17.3c7.1,2,6.8,8.4,6.8,8.7,0,3.8-3.4,8.9-8.5,8.9h-14.1l11-23.5h-1.9s-11,23.5-11,23.5h-4.7V.2h14.5c2.6,0,5.2,0,6.9.5,4.6,1.4,6.7,5.1,6.7,7.9,0,7-5.9,8.7-5.8,8.7ZM16.8,35l11-23.5h-1.9s-11,23.5-11,23.5H0L16.3.2h20.8v34.8h-20.3Z"/>
        <rect id="Rectangle" class="st1" x="115.4" y=".2" width="1.2" height="34.8"/>
        <path id="KEEPINGBRITAINTRADING" class="st1" d="M132.3,2.4h2.5v4.8l4.5-4.8h3.2l-4.5,4.6,4.9,7h-3.2l-3.5-5.2-1.5,1.5v3.7h-2.5V2.4ZM144,2.4h8.6v2.1h-6.1v2.5h5.6v2h-5.6v2.8h6.2v2.1h-8.7V2.4ZM154.5,2.4h8.6v2.1h-6.1v2.5h5.6v2h-5.6v2.8h6.2v2.1h-8.7V2.4ZM167.4,7.8h2c.3,0,.6,0,.8,0s.5-.1.7-.3c.2-.1.4-.3.5-.5.1-.2.2-.5.2-.9s0-.7-.2-.9c-.1-.2-.3-.4-.5-.5-.2-.1-.4-.2-.7-.3s-.5,0-.8,0h-2v3.5ZM164.9,2.4h5.2c.7,0,1.3.1,1.8.3.5.2.9.5,1.2.8.3.3.5.7.7,1.2.1.4.2.9.2,1.4s0,.9-.2,1.4c-.1.4-.4.8-.7,1.2-.3.3-.7.6-1.2.8-.5.2-1.1.3-1.8.3h-2.7v4.1h-2.5V2.4ZM175.7,2.4h2.5v11.5h-2.5V2.4ZM180.4,2.4h2.5l4.8,7.7h0V2.4h2.4v11.5h-2.5l-4.8-7.7h0v7.7h-2.4V2.4ZM200.7,12.6c-.5.6-1,1-1.5,1.2-.5.2-1.1.3-1.7.3-.9,0-1.7-.2-2.4-.5-.7-.3-1.3-.7-1.8-1.3-.5-.5-.9-1.2-1.1-1.9-.3-.7-.4-1.5-.4-2.3s.1-1.7.4-2.4c.3-.7.6-1.4,1.1-1.9.5-.5,1.1-1,1.8-1.3.7-.3,1.5-.5,2.4-.5s1.2,0,1.7.3c.6.2,1.1.4,1.5.8.4.3.8.8,1.1,1.3.3.5.5,1.1.5,1.7h-2.4c-.2-.6-.4-1.1-.9-1.5s-1-.5-1.6-.5-1.1.1-1.5.3-.7.5-1,.9-.4.8-.5,1.3c-.1.5-.2,1-.2,1.5s0,1,.2,1.4c.1.5.3.9.5,1.2.2.4.6.7,1,.9.4.2.9.3,1.5.3.8,0,1.5-.2,1.9-.6s.7-1,.8-1.8h-2.5v-1.9h4.8v6.2h-1.6l-.3-1.3ZM211.7,7h2.6c.5,0,.8-.1,1.1-.3.3-.2.4-.6.4-1s0-.5-.1-.7c0-.2-.2-.3-.4-.4-.2,0-.3-.2-.6-.2s-.4,0-.7,0h-2.4v2.7ZM209.1,2.4h5.4c.5,0,1,0,1.5.1.5,0,.8.3,1.2.5.3.2.6.5.8.9.2.4.3.8.3,1.4s-.1,1.1-.4,1.5-.7.7-1.2,1c.7.2,1.2.6,1.6,1.1s.5,1.1.5,1.8-.1,1.1-.3,1.5c-.2.4-.5.8-.9,1-.4.3-.8.5-1.3.6-.5.1-1,.2-1.5.2h-5.6V2.4ZM211.7,11.9h2.7c.2,0,.5,0,.7,0,.2,0,.4-.1.6-.2.2-.1.3-.3.4-.5.1-.2.2-.4.2-.7,0-.6-.2-1-.5-1.3-.3-.3-.8-.4-1.3-.4h-2.8v3.2ZM223,7.6h2.8c.6,0,1-.1,1.3-.4s.4-.7.4-1.3-.1-1-.4-1.2-.7-.4-1.3-.4h-2.8v3.2ZM220.5,2.4h6.2c.5,0,1,0,1.4.3.4.2.8.4,1.1.7.3.3.5.6.7,1,.2.4.2.8.2,1.2,0,.7-.1,1.3-.4,1.8-.3.5-.8.9-1.4,1.1h0c.3.1.6.3.8.4.2.2.4.4.5.6s.2.5.3.8c0,.3,0,.6.1.9,0,.2,0,.4,0,.6,0,.2,0,.5,0,.8,0,.3,0,.5.1.7,0,.2.1.4.3.6h-2.5c-.1-.4-.2-.8-.3-1.3,0-.5,0-1-.1-1.5,0-.6-.3-1-.5-1.3-.3-.3-.7-.4-1.4-.4h-2.5v4.5h-2.5V2.4ZM232.1,2.4h2.5v11.5h-2.5V2.4ZM239.5,4.5h-3.5v-2.1h9.4v2.1h-3.5v9.4h-2.5V4.5ZM249.7,9.4h3l-1.5-4.2h0l-1.5,4.2ZM249.9,2.4h2.6l4.3,11.5h-2.6l-.9-2.6h-4.3l-.9,2.6h-2.5l4.4-11.5ZM257.8,2.4h2.5v11.5h-2.5V2.4ZM262.6,2.4h2.5l4.8,7.7h0V2.4h2.4v11.5h-2.5l-4.8-7.7h0v7.7h-2.4V2.4ZM134.9,21.9h-3.5v-2.1h9.4v2.1h-3.5v9.4h-2.5v-9.4ZM144.7,25h2.8c.6,0,1-.1,1.3-.4.3-.3.4-.7.4-1.3s-.1-1-.4-1.2c-.3-.3-.7-.4-1.3-.4h-2.8v3.2ZM142.2,19.8h6.2c.5,0,1,0,1.4.3.4.2.8.4,1.1.7.3.3.5.6.7,1,.2.4.2.8.2,1.2,0,.7-.1,1.3-.4,1.8-.3.5-.8.9-1.4,1.1h0c.3.1.6.3.8.4.2.2.4.4.5.6.1.2.2.5.3.8,0,.3,0,.6.1.9,0,.2,0,.4,0,.6,0,.2,0,.5,0,.8,0,.3,0,.5.1.7,0,.2.1.4.3.6h-2.5c-.1-.4-.2-.8-.3-1.3,0-.5,0-1-.1-1.5,0-.6-.3-1-.5-1.3-.3-.3-.7-.4-1.4-.4h-2.5v4.5h-2.5v-11.5ZM156.8,26.8h3l-1.5-4.2h0l-1.5,4.2ZM157,19.8h2.6l4.3,11.5h-2.6l-.9-2.6h-4.3l-.9,2.6h-2.5l4.4-11.5ZM167.4,29.1h2.3c.4,0,.7,0,1.1-.2.3-.1.7-.3.9-.6.3-.3.5-.6.6-1.1s.2-1,.2-1.6,0-1.1-.2-1.6c-.1-.5-.3-.9-.6-1.2s-.6-.6-1-.8c-.4-.2-.9-.3-1.6-.3h-1.8v7.3ZM164.9,19.8h5c.7,0,1.4.1,2.1.4.6.2,1.2.6,1.7,1.1s.8,1.1,1.1,1.8c.3.7.4,1.5.4,2.5s-.1,1.6-.3,2.3c-.2.7-.5,1.3-1,1.8s-1,.9-1.6,1.2c-.7.3-1.4.4-2.3.4h-5v-11.5ZM176.9,19.8h2.5v11.5h-2.5v-11.5ZM181.6,19.8h2.5l4.8,7.7h0v-7.7h2.4v11.5h-2.5l-4.8-7.7h0v7.7h-2.4v-11.5ZM201.9,30c-.5.6-1,1-1.5,1.2s-1.1.3-1.7.3c-.9,0-1.7-.2-2.4-.5-.7-.3-1.3-.7-1.8-1.3s-.9-1.2-1.1-1.9c-.3-.7-.4-1.5-.4-2.3s.1-1.7.4-2.4.6-1.4,1.1-1.9,1.1-1,1.8-1.3c.7-.3,1.5-.5,2.4-.5s1.2,0,1.7.3c.6.2,1.1.4,1.5.8s.8.8,1.1,1.3c.3.5.5,1.1.5,1.7h-2.4c-.2-.6-.4-1.1-.9-1.5-.4-.3-1-.5-1.6-.5s-1.1.1-1.5.3-.7.5-1,.9c-.2.4-.4.8-.5,1.3-.1.5-.2,1-.2,1.5s0,1,.2,1.4c.1.5.3.9.5,1.2.2.4.6.7,1,.9s.9.3,1.5.3c.8,0,1.5-.2,1.9-.6.5-.4.7-1,.8-1.8h-2.5v-1.9h4.8v6.2h-1.6l-.3-1.3Z"/>
      </g>
    </g>
  </g>
</svg>