<svg width="61" height="60" viewBox="0 0 61 60" fill="none" xmlns="http://www.w3.org/2000/svg">
<path d="M26.9186 36.951C27.2867 36.951 27.5853 36.6524 27.5853 36.2843V34.6298C27.5853 34.2617 27.2867 33.9631 26.9186 33.9631C26.5506 33.9631 26.252 34.2617 26.252 34.6298V36.2843C26.252 36.6541 26.5506 36.951 26.9186 36.951Z" fill="#2FDBD5"/>
<path d="M34.1408 36.951C34.5088 36.951 34.8075 36.6524 34.8075 36.2843V34.6298C34.8075 34.2617 34.5088 33.9631 34.1408 33.9631C33.7727 33.9631 33.4741 34.2617 33.4741 34.6298V36.2843C33.4741 36.6541 33.7727 36.951 34.1408 36.951Z" fill="#2FDBD5"/>
<path d="M50.3056 41.2652C48.9133 39.8711 46.8386 39.5725 45.1461 40.3555L46.2901 36.5708C46.2919 36.5673 46.2919 36.5639 46.2936 36.5604L47.3197 33.1611C47.4152 32.8469 47.2659 32.5101 46.9707 32.3677L43.5315 30.7131L41.4238 21.366C40.9742 19.5344 40.4117 18.0188 38.0766 18.0188H37.9898V16.5397C37.9898 15.2376 36.9308 14.1786 35.6304 14.1786H34.8214V10.6664C34.8214 10.2984 34.5228 9.99976 34.1547 9.99976H26.9063C26.5382 9.99976 26.2396 10.2984 26.2396 10.6664V14.1768H25.4341C24.132 14.1768 23.073 15.2358 23.073 16.5379V18.0171H22.9862C20.6494 18.0171 20.0886 19.5327 19.6355 21.3782L17.5295 30.7151L14.092 32.3679C13.7969 32.5103 13.6476 32.847 13.7431 33.1613L15.9236 40.3871C15.309 40.0885 14.632 39.9253 13.9288 39.9253C12.7083 39.9253 11.559 40.401 10.6962 41.2655C10.5694 41.3905 10.5 41.5589 10.5 41.736V49.3334C10.5 49.7014 10.7986 50 11.1667 50H49.8333C50.2014 50 50.5 49.7014 50.5 49.3334V41.736C50.5 41.5589 50.4306 41.3902 50.3056 41.2652ZM17.7154 41.7079L16.2206 36.7546L29.8628 30.1902V42.1502C29.2552 42.0304 28.677 41.7352 28.2083 41.2665C27.3454 40.4019 26.1979 39.9262 24.9757 39.9262C23.7552 39.9262 22.6059 40.4019 21.743 41.2665C21.1302 41.8793 20.3177 42.2161 19.4514 42.2161C18.8264 42.2144 18.2292 42.0356 17.7153 41.7075L17.7154 41.7079ZM31.1963 30.1906L44.8403 36.7551L43.3594 41.6595C42.8282 42.0206 42.2031 42.2151 41.5469 42.2151C40.6823 42.2151 39.8698 41.8783 39.2587 41.2654C37.4757 39.4824 34.5747 39.4824 32.7916 41.2654C32.3385 41.7185 31.7829 42.0067 31.1979 42.1352L31.1963 30.1906ZM27.573 11.3328H33.4881V14.1766H27.573V11.3328ZM24.4046 16.5377C24.4046 15.97 24.8665 15.5099 25.4324 15.5099H35.6284C36.1944 15.5099 36.6545 15.9718 36.6545 16.5377V18.0169H24.4047L24.4046 16.5377ZM20.9324 21.6835C21.3769 19.8762 21.6998 19.3502 22.9845 19.3502H38.0747C39.3612 19.3502 39.6841 19.8762 40.1251 21.6696L41.9983 29.9754L30.8197 24.5985C30.6374 24.51 30.4238 24.51 30.2415 24.5985L19.0629 29.9772L20.9324 21.6835ZM30.5297 25.9404L45.8769 33.3222L45.231 35.4628L30.8195 28.5286C30.6372 28.4401 30.4237 28.4401 30.2414 28.5286L15.8298 35.4628L15.184 33.3222L30.5297 25.9404ZM49.1671 48.6662H11.8338V42.0271C12.4188 41.5288 13.1532 41.258 13.9292 41.258C14.7938 41.258 15.6063 41.5948 16.2174 42.2076C17.082 43.0722 18.2295 43.5479 19.4517 43.5479C20.674 43.5479 21.8215 43.0722 22.6861 42.2076C23.2989 41.5948 24.1114 41.258 24.9777 41.258C25.8423 41.258 26.6548 41.5948 27.2659 42.2076C29.0489 43.9906 31.9499 43.9906 33.733 42.2076C34.997 40.9437 37.0525 40.9437 38.3148 42.2076C39.1777 43.0722 40.3252 43.5479 41.5474 43.5479C42.7679 43.5479 43.9172 43.0722 44.7801 42.2076C45.3929 41.5948 46.2054 41.258 47.0717 41.258C47.8478 41.258 48.5821 41.5288 49.1672 42.0271L49.1671 48.6662Z" fill="#2FDBD5"/>
<path d="M25.0575 21.2754H23.3527C22.9846 21.2754 22.686 21.574 22.686 21.9421C22.686 22.3101 22.9846 22.6087 23.3527 22.6087H25.0575C25.4256 22.6087 25.7242 22.3101 25.7242 21.9421C25.7242 21.574 25.4256 21.2754 25.0575 21.2754Z" fill="#2FDBD5"/>
<path d="M32.0487 21.9421C32.0487 21.574 31.75 21.2754 31.382 21.2754H29.6789C29.3108 21.2754 29.0122 21.574 29.0122 21.9421C29.0122 22.3101 29.3108 22.6087 29.6789 22.6087H31.3803C31.75 22.6087 32.0487 22.3118 32.0487 21.9421Z" fill="#2FDBD5"/>
<path d="M36.0055 22.6087H37.7069C38.075 22.6087 38.3736 22.3101 38.3736 21.9421C38.3736 21.574 38.075 21.2754 37.7069 21.2754H36.0055C35.6375 21.2754 35.3389 21.574 35.3389 21.9421C35.3389 22.3118 35.6375 22.6087 36.0055 22.6087Z" fill="#2FDBD5"/>
</svg>
